<?xml version="1.0" encoding="utf-8"?>
<!-- Generator: Adobe Illustrator 24.0.0, SVG Export Plug-In . SVG Version: 6.00 Build 0)  -->
<svg version="1.1" id="Слой_1" xmlns="http://www.w3.org/2000/svg" xmlns:xlink="http://www.w3.org/1999/xlink" x="0px" y="0px"
	 viewBox="0 0 419.53 419.53" style="enable-background:new 0 0 419.53 419.53;" xml:space="preserve">
<style type="text/css">
	.st0{fill-rule:evenodd;clip-rule:evenodd;fill:#343434;}
	.st1{fill:#FFFFFF;}
</style>
<polygon class="st0" points="0.03,-0.03 419.56,-0.03 419.56,419.5 0.03,419.5 0.03,-0.03 "/>
<polygon class="st1" points="178.71,187.04 185.44,187.04 170.68,233.63 163.95,233.63 178.71,187.04 "/>
<path class="st1" d="M109.5,232.37c-3.29,0-6.23-0.71-8.81-2.13c-2.58-1.42-4.6-3.38-6.07-5.88c-1.46-2.5-2.2-5.33-2.2-8.51
	c0-3.17,0.73-6.01,2.2-8.51c1.46-2.5,3.49-4.45,6.07-5.85c2.58-1.4,5.52-2.1,8.81-2.1c2.93,0,5.54,0.59,7.83,1.77
	c2.3,1.18,4.08,2.89,5.34,5.12l-4.45,2.87c-1.02-1.54-2.28-2.7-3.78-3.48c-1.5-0.77-3.17-1.16-5-1.16c-2.11,0-4.01,0.47-5.7,1.4
	c-1.69,0.93-3.01,2.27-3.96,3.99c-0.96,1.73-1.43,3.71-1.43,5.95c0,2.28,0.48,4.28,1.43,6.01c0.95,1.73,2.28,3.06,3.96,3.99
	c1.69,0.93,3.59,1.4,5.7,1.4c1.83,0,3.5-0.39,5-1.16c1.5-0.77,2.76-1.93,3.78-3.48l4.45,2.8c-1.26,2.24-3.04,3.95-5.34,5.15
	C115.04,231.77,112.42,232.37,109.5,232.37L109.5,232.37z"/>
<path class="st1" d="M145.01,232.37c-3.21,0-6.1-0.71-8.66-2.13c-2.56-1.42-4.56-3.38-6.01-5.88c-1.44-2.5-2.16-5.33-2.16-8.51
	c0-3.17,0.72-6.01,2.16-8.51c1.44-2.5,3.45-4.45,6.01-5.85c2.56-1.4,5.45-2.1,8.66-2.1c3.21,0,6.09,0.7,8.63,2.1
	c2.54,1.4,4.53,3.35,5.98,5.85c1.44,2.5,2.16,5.34,2.16,8.51c0,3.17-0.72,6.01-2.16,8.51c-1.44,2.5-3.43,4.46-5.98,5.88
	C151.1,231.66,148.22,232.37,145.01,232.37L145.01,232.37z M145.01,227.25c2.07,0,3.93-0.48,5.58-1.43c1.65-0.96,2.94-2.3,3.87-4.02
	c0.93-1.73,1.4-3.71,1.4-5.95c0-2.24-0.47-4.22-1.4-5.95c-0.93-1.73-2.23-3.06-3.87-3.99c-1.65-0.93-3.51-1.4-5.58-1.4
	c-2.07,0-3.93,0.47-5.58,1.4c-1.65,0.93-2.95,2.27-3.9,3.99c-0.96,1.73-1.43,3.71-1.43,5.95c0,2.24,0.48,4.22,1.43,5.95
	c0.95,1.73,2.26,3.07,3.9,4.02C141.08,226.77,142.94,227.25,145.01,227.25L145.01,227.25z"/>
<path class="st1" d="M233.7,205.11c1.02-1.87,2.52-3.29,4.51-4.27c1.99-0.98,4.41-1.46,7.26-1.46v5.67
	c-0.33-0.04-0.77-0.06-1.34-0.06c-3.17,0-5.66,0.94-7.47,2.84c-1.81,1.89-2.71,4.58-2.71,8.08V232h-5.85v-32.32h5.61V205.11
	L233.7,205.11z"/>
<path class="st1" d="M270.44,191.21c-3.5,0-5.24,1.89-5.24,5.67v2.8h9.39v4.82h-9.27V232h-5.85v-27.5h-5.49v-4.82h5.49v-2.87
	c0-3.21,0.93-5.75,2.8-7.62c1.87-1.87,4.49-2.8,7.87-2.8c1.3,0,2.52,0.16,3.66,0.49c1.14,0.33,2.11,0.79,2.93,1.4l-1.77,4.45
	C273.61,191.72,272.11,191.21,270.44,191.21L270.44,191.21z"/>
<path class="st1" d="M286.22,199.69h5.85V232h-5.85V199.69L286.22,199.69z M289.15,193.47c-1.14,0-2.08-0.37-2.84-1.1
	c-0.75-0.73-1.13-1.63-1.13-2.68c0-1.06,0.38-1.96,1.13-2.71c0.75-0.75,1.7-1.13,2.84-1.13c1.14,0,2.08,0.36,2.84,1.07
	c0.75,0.71,1.13,1.6,1.13,2.65c0,1.1-0.38,2.02-1.13,2.77C291.23,193.09,290.28,193.47,289.15,193.47L289.15,193.47z"/>
<path class="st1" d="M327.16,230.11c-0.85,0.73-1.91,1.29-3.17,1.68c-1.26,0.39-2.56,0.58-3.9,0.58c-3.25,0-5.77-0.87-7.56-2.62
	c-1.79-1.75-2.68-4.25-2.68-7.5V204.5h-5.49v-4.82h5.49v-7.07h5.85v7.07h9.27v4.82h-9.27V222c0,1.75,0.44,3.09,1.31,4.02
	c0.87,0.93,2.12,1.4,3.75,1.4c1.79,0,3.31-0.51,4.57-1.52L327.16,230.11L327.16,230.11z"/>
<path class="st1" d="M202.47,232.37c-3.21,0-6.1-0.71-8.66-2.13c-2.56-1.42-4.56-3.38-6.01-5.88c-1.44-2.5-2.16-5.33-2.16-8.51
	c0-3.17,0.72-6.01,2.16-8.51c1.44-2.5,3.45-4.45,6.01-5.85c2.56-1.4,5.45-2.1,8.66-2.1c3.21,0,6.09,0.7,8.63,2.1
	c2.54,1.4,4.53,3.35,5.98,5.85c1.44,2.5,2.16,5.34,2.16,8.51c0,3.17-0.72,6.01-2.16,8.51c-1.44,2.5-3.44,4.46-5.98,5.88
	C208.55,231.66,205.68,232.37,202.47,232.37L202.47,232.37z M202.47,227.25c2.07,0,3.93-0.48,5.58-1.43
	c1.65-0.96,2.94-2.3,3.87-4.02c0.93-1.73,1.4-3.71,1.4-5.95c0-2.24-0.47-4.22-1.4-5.95c-0.93-1.73-2.23-3.06-3.87-3.99
	c-1.65-0.93-3.51-1.4-5.58-1.4c-2.07,0-3.93,0.47-5.58,1.4c-1.65,0.93-2.95,2.27-3.9,3.99c-0.96,1.73-1.43,3.71-1.43,5.95
	c0,2.24,0.48,4.22,1.43,5.95c0.95,1.73,2.26,3.07,3.9,4.02C198.53,226.77,200.39,227.25,202.47,227.25L202.47,227.25z"/>
</svg>
